<svg width="28" height="28" viewBox="0 0 28 28" fill="none" xmlns="http://www.w3.org/2000/svg">
<path d="M20.2457 19.421L14.8247 14L20.2457 8.57903C20.4641 8.35302 20.4641 7.99463 20.2457 7.76855C20.0219 7.53684 19.6526 7.53043 19.4209 7.75423L13.9999 13.1752L8.579 7.75431C8.35299 7.53598 7.9946 7.53598 7.76851 7.75431C7.5368 7.97811 7.5304 8.3474 7.7542 8.5791L13.1751 14L7.7542 19.4209C7.64483 19.5303 7.58337 19.6786 7.58337 19.8333C7.5833 20.1554 7.84449 20.4166 8.16664 20.4167C8.32137 20.4168 8.46977 20.3553 8.579 20.2457L13.9999 14.8248L19.4209 20.2458C19.5301 20.3554 19.6786 20.4169 19.8333 20.4167C19.9879 20.4166 20.1362 20.3552 20.2455 20.2459C20.4734 20.0181 20.4735 19.6488 20.2457 19.421Z" fill="#021626"/>
</svg>
