<svg width="14" height="14" viewBox="0 0 14 14" fill="none" xmlns="http://www.w3.org/2000/svg">
<path d="M6.99992 8.58331C6.76982 8.58331 6.58325 8.76988 6.58325 8.99998C6.58325 9.23008 6.76982 9.41665 6.99992 9.41665C7.23002 9.41665 7.41659 9.23008 7.41659 8.99998C7.41659 8.76988 7.23002 8.58331 6.99992 8.58331ZM6.99992 7.66665C7.18388 7.66652 7.33337 7.51731 7.33325 7.33331V4.66665C7.33325 4.48256 7.184 4.33331 6.99992 4.33331C6.81584 4.33331 6.66659 4.48256 6.66659 4.66665V7.33368C6.66671 7.51768 6.81592 7.66677 6.99992 7.66665ZM6.99992 0.333313C3.31803 0.333313 0.333252 3.31809 0.333252 6.99998C0.333252 10.6819 3.31803 13.6666 6.99992 13.6666C10.68 13.6623 13.6623 10.6801 13.6666 6.99998C13.6666 3.31809 10.6818 0.333313 6.99992 0.333313ZM6.99992 13C3.6862 13 0.999919 10.3137 0.999919 6.99998C0.999919 3.68626 3.6862 0.99998 6.99992 0.99998C10.3121 1.0036 12.9963 3.68776 12.9999 6.99998C12.9999 10.3137 10.3136 13 6.99992 13Z" fill="#F23148"/>
</svg>
