<svg width="33" height="32" viewBox="0 0 33 32" fill="none" xmlns="http://www.w3.org/2000/svg">
<rect x="0.5" width="32" height="32" rx="16" fill="#0D71C9"/>
<path d="M14.1376 21.048C14.0736 21.048 14.0096 21.0267 13.9456 20.984C13.8816 20.9413 13.8496 20.888 13.8496 20.824C13.8496 20.6533 13.951 20.5413 14.1536 20.488C14.4523 20.4133 14.7083 20.3387 14.9216 20.264C15.135 20.1893 15.3003 20.088 15.4176 19.96C15.535 19.8213 15.5936 19.64 15.5936 19.416V13.624C15.5936 13.368 15.5243 13.176 15.3856 13.048C15.2576 12.9093 15.087 12.808 14.8736 12.744C14.671 12.68 14.4523 12.632 14.2176 12.6C14.1323 12.5787 14.0416 12.5413 13.9456 12.488C13.8496 12.4347 13.8016 12.3493 13.8016 12.232C13.8016 12.0933 13.8496 11.9973 13.9456 11.944C14.0523 11.88 14.1696 11.8427 14.2976 11.832C14.927 11.7787 15.4923 11.6773 15.9936 11.528C16.495 11.3787 16.991 11.16 17.4816 10.872C17.503 10.8613 17.5296 10.8507 17.5616 10.84C17.5936 10.8293 17.6256 10.824 17.6576 10.824C17.7323 10.824 17.8016 10.84 17.8656 10.872C17.9403 10.904 17.9776 10.9413 17.9776 10.984C17.9776 11.1227 17.9616 11.2827 17.9296 11.464C17.9083 11.6347 17.8976 11.864 17.8976 12.152V19.432C17.8976 19.6347 17.9616 19.8 18.0896 19.928C18.2176 20.056 18.399 20.1627 18.6336 20.248C18.8683 20.3227 19.1403 20.4027 19.4496 20.488C19.535 20.52 19.6043 20.5573 19.6576 20.6C19.711 20.6427 19.7376 20.712 19.7376 20.808C19.7376 20.9573 19.6576 21.032 19.4976 21.032C19.2523 21.032 18.959 21.0267 18.6176 21.016C18.287 21.0053 17.9563 20.9947 17.6256 20.984C17.3056 20.9733 17.0283 20.968 16.7936 20.968C16.5696 20.968 16.2976 20.9733 15.9776 20.984C15.6576 20.9947 15.3323 21.0053 15.0016 21.016C14.671 21.0373 14.383 21.048 14.1376 21.048Z" fill="#F6FAFE"/>
</svg>
