<svg width="33" height="32" viewBox="0 0 33 32" fill="none" xmlns="http://www.w3.org/2000/svg">
<rect x="0.5" width="32" height="32" rx="16" fill="#021626" fill-opacity="0.04"/>
<path d="M19.4656 21.064C19.4016 21.064 19.2416 21.0587 18.9856 21.048C18.7403 21.048 18.447 21.0427 18.1056 21.032C17.775 21.0213 17.4336 21.0107 17.0816 21C16.7296 20.9893 16.4203 20.984 16.1536 20.984C15.9083 20.984 15.6363 20.9893 15.3376 21C15.0496 21.0107 14.7723 21.016 14.5056 21.016C14.2496 21.0267 14.031 21.032 13.8496 21.032C13.679 21.0427 13.5776 21.048 13.5456 21.048C13.5136 21.048 13.4496 21.0213 13.3536 20.968C13.2683 20.904 13.2256 20.84 13.2256 20.776C13.2256 20.6907 13.247 20.6213 13.2896 20.568C13.3323 20.5147 13.375 20.4667 13.4176 20.424L15.7536 17.832C16.319 17.2133 16.7403 16.5947 17.0176 15.976C17.295 15.3467 17.4336 14.664 17.4336 13.928C17.4336 13.48 17.3163 13.1067 17.0816 12.808C16.8576 12.4987 16.5376 12.344 16.1216 12.344C15.7483 12.344 15.3963 12.4507 15.0656 12.664C14.735 12.8773 14.4523 13.1067 14.2176 13.352C14.1643 13.416 14.0896 13.4907 13.9936 13.576C13.8976 13.6507 13.8016 13.688 13.7056 13.688C13.6203 13.688 13.5616 13.656 13.5296 13.592C13.4976 13.5173 13.4816 13.4267 13.4816 13.32C13.4816 13.1387 13.567 12.92 13.7376 12.664C13.919 12.3973 14.1643 12.1307 14.4736 11.864C14.7936 11.5973 15.1563 11.3733 15.5616 11.192C15.9776 11.0107 16.415 10.92 16.8736 10.92C17.4283 10.92 17.8923 11.0427 18.2656 11.288C18.6496 11.5333 18.943 11.8587 19.1456 12.264C19.3483 12.6693 19.4496 13.112 19.4496 13.592C19.4496 13.8907 19.3803 14.2213 19.2416 14.584C19.1136 14.936 18.9536 15.2773 18.7616 15.608C18.5696 15.928 18.3723 16.2053 18.1696 16.44C18.0096 16.6213 17.807 16.8347 17.5616 17.08C17.327 17.3147 17.0816 17.5547 16.8256 17.8C16.5696 18.0453 16.3243 18.2747 16.0896 18.488C15.855 18.7013 15.6683 18.8773 15.5296 19.016C15.391 19.1547 15.3216 19.2347 15.3216 19.256C15.3216 19.2987 15.4016 19.3307 15.5616 19.352C15.7536 19.3733 15.983 19.3893 16.2496 19.4C16.527 19.4107 16.7776 19.416 17.0016 19.416C17.247 19.416 17.487 19.4107 17.7216 19.4C17.9563 19.3893 18.191 19.3733 18.4256 19.352C18.6603 19.3307 18.863 19.288 19.0336 19.224C19.215 19.1493 19.3696 19.048 19.4976 18.92C19.6363 18.7813 19.759 18.6053 19.8656 18.392C19.8976 18.3173 19.951 18.2427 20.0256 18.168C20.111 18.0827 20.207 18.04 20.3136 18.04C20.399 18.04 20.4576 18.0773 20.4896 18.152C20.5216 18.216 20.5216 18.2853 20.4896 18.36C20.3936 18.6373 20.2923 18.9413 20.1856 19.272C20.0896 19.592 20.0043 19.8853 19.9296 20.152C19.855 20.408 19.8123 20.5893 19.8016 20.696C19.791 20.824 19.7376 20.92 19.6416 20.984C19.5456 21.0373 19.487 21.064 19.4656 21.064Z" fill="#021626" fill-opacity="0.12"/>
</svg>
